<?xml version="1.0" encoding="utf-8" ?>
<svg baseProfile="full" height="200mm" version="1.1" viewBox="0,0,200,200" width="200mm" xmlns="http://www.w3.org/2000/svg" xmlns:ev="http://www.w3.org/2001/xml-events" xmlns:xlink="http://www.w3.org/1999/xlink"><defs /><rect fill="#1a1a1a" height="200" width="200" x="0" y="0" /><text alignment-baseline="middle" fill="#e1ed5e" style="dominant-baseline: central; font-size:9.0px; font-family:Arial;" text-anchor="middle" x="100.0" y="100.0">2013</text><line stroke="#e1ed5e" stroke-width="0.3" x1="100.0" x2="100.0" y1="15.0" y2="10.0" /><path d="M 100.0 14.0 a86.0,86.0 0 0,1 42.46469731375804,11.215312516191453" fill="none" id="id1" stroke="none" /><text fill="#e1ed5e" style="font-size:6.75px; font-family:Arial;" text-anchor="middle"><textPath startOffset="22.20632615414155" xlink:href="#id1">January</textPath></text><line stroke="#e1ed5e" stroke-width="0.3" x1="143.23703022742887" x2="145.7803849466894" y1="26.818313649435467" y2="22.513508569990506" /><path d="M 143.74570117128098 25.957352633546478 a86.0,86.0 0 0,1 28.547481713284135,27.462654790039114" fill="none" id="id2" stroke="none" /><text fill="#e1ed5e" style="font-size:6.75px; font-family:Arial;" text-anchor="middle"><textPath startOffset="19.985693538727396" xlink:href="#id2">February</textPath></text><line stroke="#e1ed5e" stroke-width="0.3" x1="172.23445277983987" x2="176.4835382374775" y1="55.19839476539836" y2="52.563006222186495" /><path d="M 173.08426987136738 54.67131705675599 a86.0,86.0 0 0,1 12.851231095245387,41.99856678651699" fill="none" id="id3" stroke="none" /><text fill="#e1ed5e" style="font-size:6.75px; font-family:Arial;" text-anchor="middle"><textPath startOffset="22.20632615414155" xlink:href="#id3">March</textPath></text><path d="M 119.196687751892 91.48605970444005 l 13.460874724812326 -5.970044687619023 a35.725372047227175,35.725372047227175 0 0,0 0.2444794217863406,0.5642922127631964 l -13.561644856441347 5.737453330269224" fill="#ffa40f" stroke="none" /><path d="M 119.47837535516314 92.15188598940014 l 32.72041194890482 -13.183518582350885 a56.27648679102305,56.27648679102305 0 0,0 0.3542911687509778,0.9016323800861406 l -32.94249666753749 12.618337197368959" fill="#61ff29" stroke="none" /><path d="M 119.85752413597 93.16781622104841 l 33.274271953545366 -11.448352752377575 a56.18866230451744,56.18866230451744 0 0,0 0.30679733710381435,0.9172849880382693 l -33.46640658442095 10.873894661416992" fill="#61ff29" stroke="none" /><path d="M 120.28053869075195 94.5502522615342 l 11.987380698819615 -3.2212261148324823 a33.412638466551414,33.412638466551414 0 0,0 0.14447572069782347,0.5567238872043008 l -12.041052751387742 3.0144058020793314" fill="#ff840c" stroke="none" /><path d="M 120.67395015179393 96.31383870115 l 7.11867886667548 -1.2692590600545444 a28.230947888650743,28.230947888650743 0 0,0 0.08118163764358136,0.4791386208014349 l -7.139472365839284 1.1465346509372722" fill="#ff3a05" stroke="none" /><path d="M 120.73433829027371 96.67025291283417 l 18.556847207749215 -2.98006172523814 a39.794609497884736,39.794609497884736 0 0,0 0.10279157324498611,0.6772680360264028 l -18.6053946744335 2.6601945768196544" fill="#ffda14" stroke="none" /><path d="M 120.87857604477298 97.74499172005257 l 43.513201844386955 -4.6996802002060685 a64.76626244876948,64.76626244876948 0 0,0 0.11017319302329451,1.1094290184590898 l -43.58765216309248 3.9499756510425432" fill="#34ff5e" stroke="none" /><line stroke="#e1ed5e" stroke-width="0.3" x1="184.98032266829074" x2="189.97916517819016" y1="98.17113171792111" y2="98.06355123074" /><path d="M 185.9800911702706 98.14961562048488 a86.0,86.0 0 0,1 -9.607161424134198,41.387399972396054" fill="none" id="id4" stroke="none" /><text fill="#e1ed5e" style="font-size:6.75px; font-family:Arial;" text-anchor="middle"><textPath startOffset="21.466115282336823" xlink:href="#id4">April</textPath></text><path d="M 120.9904718944345 100.63252640178507 l 22.1511903921097 0.6675034665462742 a43.16124537712952,43.16124537712952 0 0,0 -0.02876977994122282,0.7424201846395583 l -22.136418479317275 -1.0487008981998387" fill="#f9ff18" stroke="none" /><path d="M 120.89721153311464 102.0752229133903 l 13.429760105724839 1.3336586007454385 a34.495817935963004,34.495817935963004 0 0,0 -0.06376420286251518,0.5903773259894141 l -13.40481360136127 -1.5646322486196438" fill="#ff930d" stroke="none" /><path d="M 120.76222939487914 103.15116336523771 l 3.299573531125277 0.5007889583743088 a24.337360494182814,24.337360494182814 0 0,0 -0.06642737176206613,0.4136433073722806 l -3.2904644050019205 -0.5575114954397943" fill="#ff0000" stroke="none" /><line stroke="#e1ed5e" stroke-width="0.3" x1="174.80103733775053" x2="179.2010983576182" y1="140.37084112569926" y2="142.7455964860345" /><path d="M 175.68104954172406 140.8457921977663 a86.0,86.0 0 0,1 -30.038265399797805,32.042727171017184" fill="none" id="id5" stroke="none" /><text fill="#e1ed5e" style="font-size:6.75px; font-family:Arial;" text-anchor="middle"><textPath startOffset="22.206326154141568" xlink:href="#id5">May</textPath></text><line stroke="#e1ed5e" stroke-width="0.3" x1="143.8653032363475" x2="146.44561519142675" y1="172.8068346515853" y2="177.08958963109032" /><path d="M 144.38136562736335 173.6633856474863 a86.0,86.0 0 0,1 -40.68145358897372,12.25698825130547" fill="none" id="id6" stroke="none" /><text fill="#e1ed5e" style="font-size:6.75px; font-family:Arial;" text-anchor="middle"><textPath startOffset="21.466115282336833" xlink:href="#id6">June</textPath></text><line stroke="#e1ed5e" stroke-width="0.3" x1="102.19456741930631" x2="102.32365962044197" y1="184.97166512339345" y2="189.96999836594603" /><path d="M 102.22038585953345 185.97133177190398 a86.0,86.0 0 0,1 -42.740103519485714,-10.115201625700543" fill="none" id="id7" stroke="none" /><text fill="#e1ed5e" style="font-size:6.75px; font-family:Arial;" text-anchor="middle"><textPath startOffset="22.20632615414155" xlink:href="#id7">July</textPath></text><line stroke="#e1ed5e" stroke-width="0.3" x1="58.666819895761336" x2="56.23545636021788" y1="174.27360380694188" y2="178.64263932499728" /><path d="M 58.180547188652646 175.14741091055294 a86.0,86.0 0 0,1 -31.652253787137756,-30.449443065178592" fill="none" id="id8" stroke="none" /><text fill="#e1ed5e" style="font-size:6.75px; font-family:Arial;" text-anchor="middle"><textPath startOffset="22.20632615414155" xlink:href="#id8">August</textPath></text><line stroke="#e1ed5e" stroke-width="0.3" x1="26.63291911575756" x2="22.317208475507996" y1="142.92168965132927" y2="145.44649492493687" /><path d="M 25.769776987707644 143.4266507060508 a86.0,86.0 0 0,1 -11.730757126820373,-40.83630448921669" fill="none" id="id9" stroke="none" /><text fill="#e1ed5e" style="font-size:6.75px; font-family:Arial;" text-anchor="middle"><textPath startOffset="21.46611528233685" xlink:href="#id9">September</textPath></text><line stroke="#e1ed5e" stroke-width="0.3" x1="15.007084014347285" x2="10.007500721073583" y1="101.09737516637583" y2="101.16192664675087" /><path d="M 14.007167355692545 101.11028546245083 a86.0,86.0 0 0,1 10.666146001902526,-42.60595125391555" fill="none" id="id10" stroke="none" /><text fill="#e1ed5e" style="font-size:6.75px; font-family:Arial;" text-anchor="middle"><textPath startOffset="22.20632615414155" xlink:href="#id10">October</textPath></text><path d="M 79.32604984820605 96.31383870115002 l -3.6602112989870212 -0.6526149640913509 a24.717936664951168,24.717936664951168 0 0,0 0.07829026970052935,-0.4182297512832775 l 3.6484353053766303 0.7155227928372005" fill="#ff0600" stroke="none" /><path d="M 80.52162464483688 92.15188598940014 l -8.363391252775894 -3.369729090349438 a30.016728197597818,30.016728197597818 0 0,0 0.197221786757139,-0.4775882001242178 l 8.304147779132553 3.513191860926967" fill="#ff5407" stroke="none" /><path d="M 81.43458229118936 90.18545643968196 l -22.9307050750621 -12.122237557908452 a46.93773079222323,46.93773079222323 0 0,0 0.3837537246708743,-0.7110373697251033 l 22.71864325117275 12.515155910966028" fill="#cbff1d" stroke="none" /><line stroke="#e1ed5e" stroke-width="0.3" x1="26.266209847984243" x2="21.928928074336255" y1="57.71137044288968" y2="55.22380399835378" /><path d="M 25.398753493254645 57.2138571539825 a86.0,86.0 0 0,1 29.58750427330803,-30.4925239686951" fill="none" id="id11" stroke="none" /><text fill="#e1ed5e" style="font-size:6.75px; font-family:Arial;" text-anchor="middle"><textPath startOffset="21.46611528233685" xlink:href="#id11">November</textPath></text><path d="M 82.15384107792192 88.93136811851018 l -53.53847676623425 -33.20589564446946 a84.0,84.0 0 0,0 0.7726896150161493,-1.222209409143138 l 52.95895955497213 34.12255270132681" fill="#4dd2ff" stroke="none" /><line stroke="#e1ed5e" stroke-width="0.3" x1="56.76296977257108" x2="54.21961505331056" y1="26.818313649435495" y2="22.513508569990535" /><path d="M 56.25429882871898 25.957352633546506 a86.0,86.0 0 0,1 42.26535254187918,-11.944610805530505" fill="none" id="id12" stroke="none" /><text fill="#e1ed5e" style="font-size:6.75px; font-family:Arial;" text-anchor="middle"><textPath startOffset="22.20632615414155" xlink:href="#id12">December</textPath></text></svg>