<?xml version="1.0" encoding="utf-8" ?>
<svg baseProfile="full" height="200mm" version="1.1" viewBox="0,0,200,200" width="200mm" xmlns="http://www.w3.org/2000/svg" xmlns:ev="http://www.w3.org/2001/xml-events" xmlns:xlink="http://www.w3.org/1999/xlink"><defs /><rect fill="#1a1a1a" height="200" width="200" x="0" y="0" /><text alignment-baseline="middle" fill="#e1ed5e" style="dominant-baseline: central; font-size:9.0px; font-family:Arial;" text-anchor="middle" x="100.0" y="100.0">2014</text><line stroke="#e1ed5e" stroke-width="0.3" x1="100.0" x2="100.0" y1="15.0" y2="10.0" /><path d="M 100.0 14.0 a86.0,86.0 0 0,1 42.46469731375804,11.215312516191453" fill="none" id="id13" stroke="none" /><text fill="#e1ed5e" style="font-size:6.75px; font-family:Arial;" text-anchor="middle"><textPath startOffset="22.20632615414155" xlink:href="#id13">January</textPath></text><line stroke="#e1ed5e" stroke-width="0.3" x1="143.23703022742887" x2="145.7803849466894" y1="26.818313649435467" y2="22.513508569990506" /><path d="M 143.74570117128098 25.957352633546478 a86.0,86.0 0 0,1 28.547481713284135,27.462654790039114" fill="none" id="id14" stroke="none" /><text fill="#e1ed5e" style="font-size:6.75px; font-family:Arial;" text-anchor="middle"><textPath startOffset="19.985693538727396" xlink:href="#id14">February</textPath></text><path d="M 115.68641384162765 86.03803664274999 l 10.69027225421334 -9.515061313521096 a35.31147486002995,35.31147486002995 0 0,0 0.4002103964644473,0.45750966652118297 l -10.852474514255634 9.329636090796965" fill="#ff5608" stroke="none" /><path d="M 115.9244219780498 86.31012108654704 l 10.941979393419857 -9.40658148696961 a35.42950755628979,35.42950755628979 0 0,0 0.39358705153620904,0.46588292527225567 l -11.102277058443184 9.216839612068249" fill="#ff5808" stroke="none" /><line stroke="#e1ed5e" stroke-width="0.3" x1="172.23445277983987" x2="176.4835382374775" y1="55.19839476539836" y2="52.563006222186495" /><path d="M 173.08426987136738 54.67131705675599 a86.0,86.0 0 0,1 12.851231095245387,41.99856678651699" fill="none" id="id15" stroke="none" /><text fill="#e1ed5e" style="font-size:6.75px; font-family:Arial;" text-anchor="middle"><textPath startOffset="22.20632615414155" xlink:href="#id15">March</textPath></text><path d="M 120.18372546131832 94.20196356495316 l 9.642810402636838 -2.7700221229171125 a31.032787001758358,31.032787001758358 0 0,0 0.1430659203793532,0.5146842350533195 l -9.689063093582554 2.6036265844448407" fill="#ff1101" stroke="none" /><path d="M 120.96714384426684 98.82574320788733 l 62.90143153280055 -3.5227703763380056 a84.0,84.0 0 0,0 0.0684255670660141,1.444355573508001 l -62.95275070810006 2.4395036962070047" fill="#4dd2ff" stroke="none" /><line stroke="#e1ed5e" stroke-width="0.3" x1="184.98032266829074" x2="189.97916517819016" y1="98.17113171792111" y2="98.06355123074" /><path d="M 185.9800911702706 98.14961562048488 a86.0,86.0 0 0,1 -9.607161424134198,41.387399972396054" fill="none" id="id16" stroke="none" /><text fill="#e1ed5e" style="font-size:6.75px; font-family:Arial;" text-anchor="middle"><textPath startOffset="21.466115282336823" xlink:href="#id16">April</textPath></text><path d="M 120.8583938346157 102.4346265915055 l 8.968620526425545 1.0468323781729028 a30.029507858959576,30.029507858959576 0 0,0 -0.06434678722443306,0.5129072055474255 l -8.949272229954264 -1.2010573380077234" fill="#ff0000" stroke="none" /><path d="M 120.81339534386255 102.79330883721812 l 18.161758822121698 2.43743995533224 a39.324589955815256,39.324589955815256 0 0,0 -0.0958133315939241,0.6701182180096288 l -18.117111439511177 -2.749703645322278" fill="#ff950d" stroke="none" /><path d="M 120.5718875245553 104.21870165774334 l 12.429852743297193 2.5490048159684844 a33.688524924981756,33.688524924981756 0 0,0 -0.12138450582877636,0.5670680002492853 l -12.384134198743974 -2.762586635633939" fill="#ff3c05" stroke="none" /><line stroke="#e1ed5e" stroke-width="0.3" x1="174.80103733775053" x2="179.2010983576182" y1="140.37084112569926" y2="142.7455964860345" /><path d="M 175.68104954172406 140.8457921977663 a86.0,86.0 0 0,1 -30.038265399797805,32.042727171017184" fill="none" id="id17" stroke="none" /><text fill="#e1ed5e" style="font-size:6.75px; font-family:Arial;" text-anchor="middle"><textPath startOffset="22.206326154141568" xlink:href="#id17">May</textPath></text><path d="M 118.48025628344425 109.97397251340804 l 20.87792840306472 11.268019276097334 a44.72458962363728,44.72458962363728 0 0,0 -0.37147730990297967,0.6743392203525298 l -20.68087468371023 -11.625729014847671" fill="#ffe415" stroke="none" /><path d="M 118.12598468904814 110.60418214915192 l 7.793748628625768 4.559549812076484 a30.029507858959576,30.029507858959576 0 0,0 -0.26485900708807747,0.4439189305412472 l -7.714108745839461 -4.693030836503835" fill="#ff0000" stroke="none" /><path d="M 117.35343817320211 111.8261652097733 l 18.117476400270746 12.346848327995318 a42.924589272068204,42.924589272068204 0 0,0 -0.42135409014199715,0.606991992922575 l -17.90226140296661 -12.65688158310491" fill="#ffca12" stroke="none" /><path d="M 117.14729908036423 112.12312394758627 l 18.576909729614755 13.13385730077656 a43.75081938523132,43.75081938523132 0 0,0 -0.4400503406802886,0.6111914353144746 l -18.348079596558865 -13.451682341542169" fill="#ffd614" stroke="none" /><line stroke="#e1ed5e" stroke-width="0.3" x1="143.8653032363475" x2="146.44561519142675" y1="172.8068346515853" y2="177.08958963109032" /><path d="M 144.38136562736335 173.6633856474863 a86.0,86.0 0 0,1 -40.68145358897372,12.25698825130547" fill="none" id="id18" stroke="none" /><text fill="#e1ed5e" style="font-size:6.75px; font-family:Arial;" text-anchor="middle"><textPath startOffset="21.466115282336833" xlink:href="#id18">June</textPath></text><line stroke="#e1ed5e" stroke-width="0.3" x1="102.19456741930631" x2="102.32365962044197" y1="184.97166512339345" y2="189.96999836594603" /><path d="M 102.22038585953345 185.97133177190398 a86.0,86.0 0 0,1 -42.740103519485714,-10.115201625700543" fill="none" id="id19" stroke="none" /><text fill="#e1ed5e" style="font-size:6.75px; font-family:Arial;" text-anchor="middle"><textPath startOffset="22.20632615414155" xlink:href="#id19">July</textPath></text><path d="M 99.09653310690486 120.98055641714683 l -0.9038900325475335 20.990382677767084 a42.00983536703806,42.00983536703806 0 0,0 -0.7221929434040827,-0.037329125992238824 l 1.2650710443651052 -20.971713745012643" fill="#ffbd11" stroke="none" /><path d="M 93.42475214034765 119.94407469862007 l -5.709840271421025 17.31911607305264 a39.23606474755482,39.23606474755482 0 0,0 -0.6396044058820354,-0.2169885412215651 l 6.007114410240287 -17.218264544932953" fill="#ff930d" stroke="none" /><path d="M 92.7421414339146 119.70592522655815 l -16.34802937960482 44.38679007351131 a68.30164053842513,68.30164053842513 0 0,0 -1.099753268427057,-0.4158325839726368 l 17.10965286879216 -44.098809239432036" fill="#37ff74" stroke="none" /><line stroke="#e1ed5e" stroke-width="0.3" x1="58.666819895761336" x2="56.23545636021788" y1="174.27360380694188" y2="178.64263932499728" /><path d="M 58.180547188652646 175.14741091055294 a86.0,86.0 0 0,1 -31.652253787137756,-30.449443065178592" fill="none" id="id20" stroke="none" /><text fill="#e1ed5e" style="font-size:6.75px; font-family:Arial;" text-anchor="middle"><textPath startOffset="22.20632615414155" xlink:href="#id20">August</textPath></text><line stroke="#e1ed5e" stroke-width="0.3" x1="26.63291911575756" x2="22.317208475507996" y1="142.92168965132927" y2="145.44649492493687" /><path d="M 25.769776987707644 143.4266507060508 a86.0,86.0 0 0,1 -11.730757126820373,-40.83630448921669" fill="none" id="id21" stroke="none" /><text fill="#e1ed5e" style="font-size:6.75px; font-family:Arial;" text-anchor="middle"><textPath startOffset="21.46611528233685" xlink:href="#id21">September</textPath></text><line stroke="#e1ed5e" stroke-width="0.3" x1="15.007084014347285" x2="10.007500721073583" y1="101.09737516637583" y2="101.16192664675087" /><path d="M 14.007167355692545 101.11028546245083 a86.0,86.0 0 0,1 10.666146001902526,-42.60595125391555" fill="none" id="id22" stroke="none" /><text fill="#e1ed5e" style="font-size:6.75px; font-family:Arial;" text-anchor="middle"><textPath startOffset="22.20632615414155" xlink:href="#id22">October</textPath></text><line stroke="#e1ed5e" stroke-width="0.3" x1="26.266209847984243" x2="21.928928074336255" y1="57.71137044288968" y2="55.22380399835378" /><path d="M 25.398753493254645 57.2138571539825 a86.0,86.0 0 0,1 29.58750427330803,-30.4925239686951" fill="none" id="id23" stroke="none" /><text fill="#e1ed5e" style="font-size:6.75px; font-family:Arial;" text-anchor="middle"><textPath startOffset="21.46611528233685" xlink:href="#id23">November</textPath></text><line stroke="#e1ed5e" stroke-width="0.3" x1="56.76296977257108" x2="54.21961505331056" y1="26.818313649435495" y2="22.513508569990535" /><path d="M 56.25429882871898 25.957352633546506 a86.0,86.0 0 0,1 42.26535254187918,-11.944610805530505" fill="none" id="id24" stroke="none" /><text fill="#e1ed5e" style="font-size:6.75px; font-family:Arial;" text-anchor="middle"><textPath startOffset="22.20632615414155" xlink:href="#id24">December</textPath></text></svg>