<?xml version="1.0" encoding="utf-8" ?>
<svg baseProfile="full" height="200mm" version="1.1" viewBox="0,0,200,200" width="200mm" xmlns="http://www.w3.org/2000/svg" xmlns:ev="http://www.w3.org/2001/xml-events" xmlns:xlink="http://www.w3.org/1999/xlink"><defs /><rect fill="#1a1a1a" height="200" width="200" x="0" y="0" /><text alignment-baseline="middle" fill="#e1ed5e" style="dominant-baseline: central; font-size:9.0px; font-family:Arial;" text-anchor="middle" x="100.0" y="100.0">2020</text><line stroke="#e1ed5e" stroke-width="0.3" x1="100.0" x2="100.0" y1="15.0" y2="10.0" /><path d="M 100.0 14.0 a86.0,86.0 0 0,1 42.35913384403234,11.155469271406648" fill="none" id="id85" stroke="none" /><text fill="#e1ed5e" style="font-size:6.75px; font-family:Arial;" text-anchor="middle"><textPath startOffset="22.145653131862478" xlink:href="#id85">January</textPath></text><line stroke="#e1ed5e" stroke-width="0.3" x1="143.13028292997686" x2="145.6673583964461" y1="26.7553504044142" y2="22.446841604673864" /><path d="M 143.63769802327073 25.89364864446614 a86.0,86.0 0 0,1 29.32050498858742,28.57503671076992" fill="none" id="id86" stroke="none" /><text fill="#e1ed5e" style="font-size:6.75px; font-family:Arial;" text-anchor="middle"><textPath startOffset="20.669276256404974" xlink:href="#id86">February</textPath></text><line stroke="#e1ed5e" stroke-width="0.3" x1="172.87174338648825" x2="177.1583165268699" y1="56.24261187166439" y2="53.66864786411523" /><path d="M 173.72905801456457 55.72781907015455 a86.0,86.0 0 0,1 12.242430191666344,42.057860355516425" fill="none" id="id87" stroke="none" /><text fill="#e1ed5e" style="font-size:6.75px; font-family:Arial;" text-anchor="middle"><textPath startOffset="22.145653131862474" xlink:href="#id87">March</textPath></text><line stroke="#e1ed5e" stroke-width="0.3" x1="184.99686870605535" x2="189.99668451229388" y1="99.2704041080226" y2="99.22748670261217" /><path d="M 185.99683186730306 99.26182062694052 a86.0,86.0 0 0,1 -10.086455211305974,41.156179273409016" fill="none" id="id88" stroke="none" /><text fill="#e1ed5e" style="font-size:6.75px; font-family:Arial;" text-anchor="middle"><textPath startOffset="21.40746469413373" xlink:href="#id88">April</textPath></text><line stroke="#e1ed5e" stroke-width="0.3" x1="174.33088141563837" x2="178.70328620479359" y1="141.23008692659167" y2="143.65538615756765" /><path d="M 175.20536237346943 141.71514677278685 a86.0,86.0 0 0,1 -30.301960400862466,31.63118572779886" fill="none" id="id89" stroke="none" /><text fill="#e1ed5e" style="font-size:6.75px; font-family:Arial;" text-anchor="middle"><textPath startOffset="22.145653131862474" xlink:href="#id89">May</textPath></text><line stroke="#e1ed5e" stroke-width="0.3" x1="143.1302829299769" x2="145.6673583964461" y1="173.24464959558577" y2="177.55315839532614" /><path d="M 143.63769802327073 174.10635135553383 a86.0,86.0 0 0,1 -40.685524379131806,11.842963189579606" fill="none" id="id90" stroke="none" /><text fill="#e1ed5e" style="font-size:6.75px; font-family:Arial;" text-anchor="middle"><textPath startOffset="21.407464694133747" xlink:href="#id90">June</textPath></text><line stroke="#e1ed5e" stroke-width="0.3" x1="101.45913802915013" x2="101.54496967792366" y1="184.9874750549273" y2="189.98673829345242" /><path d="M 101.47630435890484 185.9873277026323 a86.0,86.0 0 0,1 -42.54439059252881,-10.42667462771756" fill="none" id="id91" stroke="none" /><text fill="#e1ed5e" style="font-size:6.75px; font-family:Arial;" text-anchor="middle"><textPath startOffset="22.145653131862474" xlink:href="#id91">July</textPath></text><line stroke="#e1ed5e" stroke-width="0.3" x1="58.13341422392154" x2="55.670673884152215" y1="173.97424548756322" y2="178.32567169271397" /><path d="M 57.64086615596767 174.84453072859336 a86.0,86.0 0 0,1 -31.369924170532244,-30.572349798747886" fill="none" id="id92" stroke="none" /><text fill="#e1ed5e" style="font-size:6.75px; font-family:Arial;" text-anchor="middle"><textPath startOffset="22.145653131862474" xlink:href="#id92">August</textPath></text><line stroke="#e1ed5e" stroke-width="0.3" x1="26.387840678322732" x2="22.057713659400548" y1="142.50000000000003" y2="145.00000000000006" /><path d="M 25.521815274538298 143.00000000000003 a86.0,86.0 0 0,1 -11.493303480769221,-40.785679425670985" fill="none" id="id93" stroke="none" /><text fill="#e1ed5e" style="font-size:6.75px; font-family:Arial;" text-anchor="middle"><textPath startOffset="21.40746469413373" xlink:href="#id93">September</textPath></text><line stroke="#e1ed5e" stroke-width="0.3" x1="15.003131293944662" x2="10.003315487706104" y1="100.72959589197737" y2="100.7725132973878" /><path d="M 14.003168132696942 100.73817937305945 a86.0,86.0 0 0,1 10.791469493833604,-42.453326145846276" fill="none" id="id94" stroke="none" /><text fill="#e1ed5e" style="font-size:6.75px; font-family:Arial;" text-anchor="middle"><textPath startOffset="22.145653131862435" xlink:href="#id94">October</textPath></text><line stroke="#e1ed5e" stroke-width="0.3" x1="26.387840678322718" x2="22.05771365940052" y1="57.5" y2="55.0" /><path d="M 25.521815274538284 57.0 a86.0,86.0 0 0,1 29.574782752854787,-30.346332500585742" fill="none" id="id95" stroke="none" /><text fill="#e1ed5e" style="font-size:6.75px; font-family:Arial;" text-anchor="middle"><textPath startOffset="21.40746469413373" xlink:href="#id95">November</textPath></text><path d="M 87.25179093698888 83.31218511350988 l -17.570053505066515 -22.999764044426627 a49.942977149391524,49.942977149391524 0 0,0 0.6857575326631257,-0.5146052369960474 l 17.172642983492636 23.297988308686676" fill="#ff0000" stroke="none" /><path d="M 87.83215693770416 82.88440491214696 l -36.503529186887526 -51.346785263559106 a84.0,84.0 0 0,0 1.1824196353049383,-0.8254207367794839 l 35.61671446040882 51.96585081614372" fill="#4dd2ff" stroke="none" /><line stroke="#e1ed5e" stroke-width="0.3" x1="56.869717070023135" x2="54.33264160355391" y1="26.7553504044142" y2="22.446841604673864" /><path d="M 56.362301976729285 25.89364864446614 a86.0,86.0 0 0,1 42.16139366436587,-11.88097634709845" fill="none" id="id96" stroke="none" /><text fill="#e1ed5e" style="font-size:6.75px; font-family:Arial;" text-anchor="middle"><textPath startOffset="22.145653131862474" xlink:href="#id96">December</textPath></text><path d="M 89.65649057296885 81.72400993836675 l -23.43182475757091 -41.40178915254429 a68.57266606467675,68.57266606467675 0 0,0 1.0294253100247688,-0.5710048664622127 l 22.71765525939004 41.79792693443965" fill="#59ff2a" stroke="none" /><path d="M 91.26138138417902 80.90454125486306 l -16.850534458028093 -36.821458828084396 a61.49395438518578,61.49395438518578 0 0,0 0.9636588663606028,-0.4310323536771618 l 16.215962188811872 37.105294932671406" fill="#e7ff1a" stroke="none" /><path d="M 91.5904679813234 80.7573450057729 l -19.713134902822368 -45.107510494901824 a70.22697625026903,70.22697625026903 0 0,0 1.1088001000680137,-0.47328082938952604 l 18.935899727583923 45.439265973950754" fill="#3bff2e" stroke="none" /><path d="M 92.592206182469 80.34994680014964 l -16.57798933709726 -43.97508630026745 a67.99614819936716,67.99614819936716 0 0,0 1.0957444855428315,-0.40237255273392764 l 15.820655699900302 44.253189702010104" fill="#64ff29" stroke="none" /><path d="M 93.61358852112211 79.99465700312896 l -13.243157484354501 -41.48400219940746 a64.54656885032227,64.54656885032227 0 0,0 1.0584388380764622,-0.32790705763456623 l 12.529078013406425 41.70522584484867" fill="#a7ff21" stroke="none" /><path d="M 95.00130118170881 79.60360301121753 l -9.868255290882422 -40.26584913717559 a62.457460959685086,62.457460959685086 0 0,0 1.0435388004666006,-0.2462723155012775 l 9.175584336675914 40.4293175963231" fill="#d3ff1c" stroke="none" /><path d="M 96.05791012581881 79.37332000966035 l -6.45293989369458 -33.764508276661566 a55.37560839369076,55.37560839369076 0 0,0 0.9352288050343642,-0.17042984238790815 l 5.872376355109177 33.870306292980835" fill="#ff8a0c" stroke="none" /><path d="M 96.76829788921471 79.25015418208739 l -6.695325133936724 -42.988790262052696 a64.50705077161496,64.50705077161496 0 0,0 1.0956212153107368,-0.16101858886201925 l 5.956378813018302 43.0973899242136" fill="#a8ff21" stroke="none" /><path d="M 98.5590905019552 79.04949213459386 l -3.1612754825904728 -45.96425171226654 a67.07283470924516,67.07283470924516 0 0,0 1.149358970886013,-0.06914258157839848 l 2.3717721595719765 46.01174627166963" fill="#75ff27" stroke="none" /><path d="M 98.9189461498227 79.02784411241856 l -2.285093297503065 -44.33019950397693 a65.38905540153665,65.38905540153665 0 0,0 1.1214977759180615,-0.04816194000585579 l 1.5237697609841836 44.36289401240862" fill="#96ff23" stroke="none" /><path d="M 99.27912038922189 79.0123766808444 l -1.5214053024839127 -44.294055383023746 a65.3201761770957,65.3201761770957 0 0,0 1.1209772293704123,-0.028872397048602512 l 0.7608147590427563 44.3136454974224" fill="#98ff23" stroke="none" /></svg>